<svg xmlns="http://www.w3.org/2000/svg" xml:space="preserve" width="500" height="500" viewBox="0 0 132.29 132.29"><defs><linearGradient id="a" x1="56.105" x2="46.763" y1="32.005" y2="84.008" gradientTransform="rotate(4.653 84.113 62.838)" gradientUnits="userSpaceOnUse"><stop offset="0" stop-color="#f69336" stop-opacity=".957"/><stop offset="1" stop-color="#f63b36" stop-opacity=".957"/></linearGradient></defs><circle cx="65.357" cy="65.376" r="57.804" fill="#37d9c4" stroke="#37d9c4" stroke-linecap="round" stroke-width="3.676"/><path fill="url(#a)" stroke="#000" stroke-width="3.819" d="M83.317 64.623c-2.306 1.33-11.533-2.631-13.37-.805-3.079 3.058-7.84 8.445-12.421 13.43-2.136 2.324 5.89 16.442 4.375 23.58-1.163 5.487.298 21.216-14.474 10.407-9.508-6.958-5.717-3.103-16.667-16.723-4.953-6.162 2.895-10.983-3.014-15.03-3.415-2.338-7.863-4.749-8.189-12.837-.563-14.011 1.338-27.351 10.201-35.98 20.755-20.207 48.06-14.937 58.084-10.652 9.136 3.905 30.949 21.46 16.13 46.429-1.768 2.978-10.022-11.093-13.501-10.866s-5.26 7.955-7.153 9.047z"/><path fill="#f63b36" fill-opacity=".957" stroke="#000" stroke-width="3.819" d="M81.979 103.22c-6.953 1.907-14.153 4.458-14.045 3.836 2.138-12.234-1.802-17.545-.714-18.53 1.502-1.361 12.824-.656 16.21-1.917 2.835-1.056 2.982-9.677 5.917-11.786 2.34-1.68 5.836 15.123 3.451 18.143-1.924 2.437-7.387 9.312-10.819 10.253z"/><path fill="none" stroke="#fff" stroke-linecap="round" stroke-width="7.887" d="M27.25 60.079c.58-6.018 2.382-13.61 4.546-18.423M38.085 33.684c3.79-4.088-1.909 1.225-.019-.099"/></svg>